<svg width="16" height="16" viewBox="0 0 16 16" fill="none" xmlns="http://www.w3.org/2000/svg">
<path d="M14.0666 1.93334C13.6908 1.55266 13.1782 1.33838 12.6433 1.33838C12.1084 1.33838 11.5957 1.55266 11.2199 1.93334L9.93994 3.23334L12.7666 6.06001L14.0466 4.78001C14.4299 4.4069 14.6478 3.89578 14.6516 3.36086C14.6554 2.82594 14.4447 2.3118 14.0666 1.93334Z" fill="black"/>
<path d="M8.99338 4.18005L3.40005 9.77339C3.3499 9.82494 3.30726 9.88329 3.27338 9.94672L1.42005 13.6867C1.3107 13.892 1.31627 14.1395 1.43475 14.3397C1.55322 14.5398 1.76746 14.6638 2.00005 14.6667C2.10163 14.6671 2.20196 14.6443 2.29338 14.6001L6.03338 12.7467C6.09681 12.7128 6.15516 12.6702 6.20671 12.6201L11.8 7.02672L8.99338 4.18005Z" fill="black"/>
</svg>
